<?xml version="1.0" encoding="UTF-8"?>
<svg id="Camada_2" data-name="Camada 2" xmlns="http://www.w3.org/2000/svg" viewBox="0 0 2350 2350">
  <defs>
    <style>
      .cls-1 {
        fill: #475e70;
      }

      .cls-1, .cls-2 {
        stroke-width: 0px;
      }

      .cls-2 {
        fill: #fff;
      }
    </style>
  </defs>
  <g id="Camada_1-2" data-name="Camada 1">
    <circle class="cls-1" cx="1175" cy="1175" r="1175"/>
    <g>
      <path class="cls-2" d="m540.7,1869.85h493.36c17.85,0,31.58-14.56,30.74-32.39-2.58-54.88-24.37-163.88-152.43-201.69-12.44-3.67-25.37-5.53-38.34-5.53h-167.3c-20.93,0-37.9-16.97-37.9-37.9v-608.85c0-18.44,12.51-35.16,30.6-38.74,9.29-1.84,20.25-.41,32.24,7.97,7.91,5.53,14.22,13.06,19.07,21.41l513.97,883.32c4.47,7.68,12.68,12.4,21.57,12.4h165.7c14.09,0,25.52-11.42,25.52-25.52h0c0-6.82-1.83-13.52-5.29-19.41L686.87,490.43c-3.75-6.37-10.59-10.29-17.99-10.29h-120.29c-22.91,0-41.49,18.57-41.49,41.49v1314.62c0,18.56,15.04,33.6,33.6,33.6Z"/>
      <path class="cls-2" d="m1809.3,480.15h-493.36c-17.85,0-31.58,14.56-30.74,32.39,2.58,54.88,24.37,163.88,152.43,201.69,12.44,3.67,25.37,5.53,38.34,5.53h167.3c20.93,0,37.9,16.97,37.9,37.9v608.85c0,18.44-12.51,35.16-30.6,38.74-9.29,1.84-20.25.41-32.24-7.97-7.91-5.53-14.22-13.06-19.07-21.41l-513.97-883.32c-4.47-7.68-12.68-12.4-21.57-12.4h-165.7c-14.09,0-25.52,11.42-25.52,25.52h0c0,6.82,1.83,13.52,5.29,19.41l785.35,1334.5c3.75,6.37,10.59,10.29,17.99,10.29h120.29c22.91,0,41.49-18.57,41.49-41.49V513.74c0-18.56-15.04-33.6-33.6-33.6Z"/>
    </g>
  </g>
</svg>